<svg height="304" version="1.1" width="304" xmlns="http://www.w3.org/2000/svg" style="overflow: hidden; position: relative; left: -0.5px; top: -0.5px;">
  <desc style="-webkit-tap-highlight-color: rgba(0, 0, 0, 0);">Created with Raphaël 2.1.0</desc>
  <defs style="-webkit-tap-highlight-color: rgba(0, 0, 0, 0);"></defs>
  <circle cx="152" cy="152" r="150" fill="#ff0023" stroke="#dedede" stroke-width="2" style="-webkit-tap-highlight-color: rgba(0, 0, 0, 0);"></circle>
  <path fill="#ffffff" stroke="none" d="M79.421030078125,86.87728515625C80.710092578125,106.09603515625,88.913217578125,122.26791015625,89.733530078125,142.07259765625C89.967905078125,148.40072265625,81.647592578125,148.63509765625,78.835092578125,144.65072265625C70.749155078125,133.16634765625,71.452280078125,110.78353515625,71.921030078125,91.79916015625C73.444467578125,89.33822265625,76.491342578125,87.93197265625,79.421030078125,86.87728515625C79.421030078125,86.87728515625,79.421030078125,86.87728515625,79.421030078125,86.87728515625M73.210092578125,59.22103515625C76.374155078125,60.15853515625,81.413217578125,66.83822265625,75.671030078125,68.36166015625C74.030405078125,68.83041015625,71.335092578125,68.36166015625,67.467905078125,67.07259765625C67.585092578125,62.97103515625,68.756967578125,59.10384765625,73.210092578125,59.22103515625C73.210092578125,59.22103515625,73.210092578125,59.22103515625,73.210092578125,59.22103515625M115.749155078125,144.76791015625C93.014780078125,144.76791015625,90.319467578125,119.33822265625,98.991342578125,102.81478515625C105.085092578125,91.21322265625,113.171030078125,79.14291015625,129.577280078125,79.14291015625C155.124155078125,79.14291015625,153.835092578125,106.44759765625,156.296030078125,130.23666015625C156.881967578125,134.80697265625,157.936655078125,138.90853515625,159.694467578125,142.77572265625C158.053842578125,146.17416015625,157.585092578125,149.92416015625,153.835092578125,148.75228515625C149.850717578125,145.11947265625,147.858530078125,139.02572265625,144.694467578125,131.99447265625C135.553842578125,137.85384765625,130.514780078125,144.76791015625,115.749155078125,144.76791015625C115.749155078125,144.76791015625,115.749155078125,144.76791015625,115.749155078125,144.76791015625M139.889780078125,111.83822265625C140.241342578125,102.93197265625,141.178842578125,89.10384765625,132.389780078125,89.10384765625C118.327280078125,89.10384765625,110.475717578125,100.00228515625,106.374155078125,110.78353515625C102.624155078125,120.74447265625,102.389780078125,135.74447265625,115.749155078125,134.80697265625C129.928842578125,133.86947265625,139.421030078125,126.13509765625,139.889780078125,111.83822265625C139.889780078125,111.83822265625,139.889780078125,111.83822265625,139.889780078125,111.83822265625M182.311655078125,119.45541015625C183.600717578125,107.38509765625,192.038217578125,99.88509765625,202.350717578125,96.95541015625C226.491342578125,96.36947265625,227.663217578125,120.86166015625,228.483530078125,144.53353515625C228.483530078125,144.53353515625,219.928842578125,144.53353515625,219.928842578125,144.53353515625C219.928842578125,144.53353515625,217.233530078125,125.54916015625,217.233530078125,125.54916015625C215.710092578125,117.46322265625,213.249155078125,110.66634765625,207.389780078125,106.91634765625C201.530405078125,105.62728515625,198.835092578125,110.31478515625,196.725717578125,114.41634765625C192.506967578125,122.38509765625,190.983530078125,133.98666015625,189.811655078125,144.53353515625C182.311655078125,149.22103515625,177.858530078125,140.78353515625,175.280405078125,135.04134765625C171.647592578125,127.07259765625,169.186655078125,116.87728515625,167.077280078125,107.61947265625C167.077280078125,102.93197265625,169.772592578125,101.64291015625,174.694467578125,101.87728515625C175.866342578125,108.90853515625,177.506967578125,115.93978515625,182.311655078125,119.45541015625C182.311655078125,119.45541015625,182.311655078125,119.45541015625,182.311655078125,119.45541015625" style="-webkit-tap-highlight-color: rgba(0, 0, 0, 0);"></path>
  <path fill="#ffffff" stroke="none" d="M54.287049375,182.26371875C53.724549375,180.63871875,51.412049375,180.32621875,49.912049375,181.82621875C46.099549375,185.76371875,44.287049375,192.51371875,42.287049375,198.26371875C40.662049375,198.76371875,38.537049375,198.57621875,37.599549375,197.32621875C34.912049375,193.82621875,35.349549375,186.63871875,32.412049375,183.32621875C31.287049375000002,182.13871875,29.037049375000002,181.26371875,28.224549375000002,183.51371875C26.474549375000002,188.26371875,25.474549375000002,195.01371875,24.912049375000002,200.95121875C23.349549375000002,202.57621875,20.662049375000002,202.76371875,18.849549375000002,200.70121875C13.787049375,194.95121875,11.037049375,185.70121875,10.037049375,176.07621875C9.724549375,173.32621875,11.412049375,172.45121875,14.224549375,172.82621875C14.224549375,172.82621875,16.224549375000002,181.63871875,16.224549375000002,181.63871875C17.099549375000002,184.70121875,18.037049375000002,187.88871875,19.537049375000002,190.26371875C23.912049375000002,186.95121875,18.912049375000002,176.76371875,29.037049375000002,176.76371875C36.287049375,176.76371875,36.724549375,183.26371875,40.974549375,186.26371875C42.974549375,181.76371875,45.412049375,177.13871875,49.349549375,174.70121875C53.599549375,172.13871875,57.537049375,176.45121875,59.162049375,179.57621875C61.912049375,184.63871875,63.412049375,191.82621875,63.724549375,199.01371875C63.849549375,201.51371875,60.349549375,201.51371875,58.349549375,200.95121875C58.349549375,200.95121875,54.287049375,182.26371875,54.287049375,182.26371875M77.09954937500001,202.45121875C66.72454937500001,202.45121875,63.91204937500001,190.45121875,68.09954937500001,182.45121875C71.41204937500001,176.20121875,78.03704937500001,171.51371875,87.09954937500001,171.51371875C93.09954937500001,171.51371875,95.97454937500001,178.13871875,95.97454937500001,184.20121875C95.97454937500001,192.63871875,89.97454937500001,197.88871875,83.84954937500001,200.88871875C81.59954937500001,201.95121875,79.34954937500001,202.45121875,77.09954937500001,202.45121875C77.09954937500001,202.45121875,77.09954937500001,202.45121875,77.09954937500001,202.45121875M89.47454937500001,188.13871875C92.09954937500001,183.32621875,90.03704937500001,174.13871875,83.78704937500001,177.51371875C79.28704937500001,179.95121875,74.91204937500001,183.63871875,72.41204937500001,188.01371875C70.03704937500001,192.20121875,72.59954937500001,197.45121875,77.72454937500001,197.01371875C83.53704937500001,196.57621875,87.22454937500001,192.32621875,89.47454937500001,188.13871875C89.47454937500001,188.13871875,89.47454937500001,188.13871875,89.47454937500001,188.13871875M121.22454937500001,178.20121875C115.34954937500001,177.51371875,114.41204937500001,184.01371875,114.41204937500001,189.63871875C114.47454937500001,193.38871875,116.03704937500001,196.01371875,116.03704937500001,199.82621875C116.03704937500001,203.20121875,111.91204937500001,202.95121875,109.97454937500001,200.82621875C105.16204937500001,195.51371875,101.41204937500001,187.32621875,99.03704937500001,179.57621875C98.59954937500001,178.01371875,98.41204937500001,176.82621875,98.41204937500001,176.07621875C98.41204937500001,173.51371875,100.28704937500001,171.51371875,101.91204937500001,173.70121875C104.41204937500001,177.07621875,106.22454937500001,182.07621875,107.84954937500001,186.26371875C110.47454937500001,179.88871875,112.22454937500001,171.51371875,120.59954937500001,171.51371875C124.97454937500001,171.51371875,127.91204937500001,174.01371875,128.099549375,178.38871875C128.162049375,180.45121875,126.03704937500001,180.95121875,123.91204937500001,180.88871875C123.91204937500001,180.88871875,121.22454937500001,178.20121875,121.22454937500001,178.20121875M137.162049375,170.20121875C137.849549375,180.45121875,142.224549375,189.07621875,142.662049375,199.63871875C142.787049375,203.01371875,138.349549375,203.13871875,136.849549375,201.01371875C132.537049375,194.88871875,132.912049375,182.95121875,133.162049375,172.82621875C133.974549375,171.51371875,135.599549375,170.76371875,137.162049375,170.20121875C137.162049375,170.20121875,137.162049375,170.20121875,137.162049375,170.20121875M133.849549375,155.45121875C135.537049375,155.95121875,138.224549375,159.51371875,135.162049375,160.32621875C134.287049375,160.57621875,132.849549375,160.32621875,130.787049375,159.63871875C130.849549375,157.45121875,131.474549375,155.38871875,133.849549375,155.45121875C133.849549375,155.45121875,133.849549375,155.45121875,133.849549375,155.45121875M156.537049375,201.07621875C144.412049375,201.07621875,142.974549375,187.51371875,147.599549375,178.70121875C150.849549375,172.51371875,155.162049375,166.07621875,163.912049375,166.07621875C177.537049375,166.07621875,176.849549375,180.63871875,178.162049375,193.32621875C178.474549375,195.76371875,179.037049375,197.95121875,179.974549375,200.01371875C179.099549375,201.82621875,178.849549375,203.82621875,176.849549375,203.20121875C174.724549375,201.26371875,173.662049375,198.01371875,171.974549375,194.26371875C167.099549375,197.38871875,164.412049375,201.07621875,156.537049375,201.07621875C156.537049375,201.07621875,156.537049375,201.07621875,156.537049375,201.07621875M169.412049375,183.51371875C169.599549375,178.76371875,170.099549375,171.38871875,165.412049375,171.38871875C157.912049375,171.38871875,153.724549375,177.20121875,151.537049375,182.95121875C149.537049375,188.26371875,149.412049375,196.26371875,156.537049375,195.76371875C164.099549375,195.26371875,169.162049375,191.13871875,169.412049375,183.51371875C169.412049375,183.51371875,169.412049375,183.51371875,169.412049375,183.51371875M206.724549375,178.20121875C200.849549375,177.51371875,199.912049375,184.01371875,199.912049375,189.63871875C199.974549375,193.38871875,201.537049375,196.01371875,201.537049375,199.82621875C201.537049375,203.20121875,197.412049375,202.95121875,195.474549375,200.82621875C190.662049375,195.51371875,186.912049375,187.32621875,184.537049375,179.57621875C184.099549375,178.01371875,183.912049375,176.82621875,183.912049375,176.07621875C183.912049375,173.51371875,185.787049375,171.51371875,187.412049375,173.70121875C189.912049375,177.07621875,191.724549375,182.07621875,193.349549375,186.26371875C195.974549375,179.88871875,197.724549375,171.51371875,206.099549375,171.51371875C210.474549375,171.51371875,213.412049375,174.01371875,213.599549375,178.38871875C213.662049375,180.45121875,211.537049375,180.95121875,209.412049375,180.88871875C209.412049375,180.88871875,206.724549375,178.20121875,206.724549375,178.20121875M214.537049375,171.20121875C214.162049375,170.13871875,215.474549375,169.26371875,215.974549375,168.88871875C215.974549375,168.88871875,228.537049375,168.88871875,228.537049375,168.88871875C228.099549375,163.82621875,226.849549375,156.51371875,229.974549375,153.45121875C230.662049375,152.76371875,231.599549375,152.38871875,232.849549375,152.38871875C232.849549375,159.51371875,233.849549375,164.57621875,236.099549375,168.38871875C238.724549375,172.82621875,245.724549375,171.63871875,250.474549375,170.32621875C253.537049375,169.51371875,254.474549375,172.82621875,253.099549375,174.70121875C249.037049375,176.57621875,241.849549375,176.38871875,236.037049375,176.82621875C235.037049375,186.63871875,242.224549375,191.38871875,241.349549375,200.82621875C241.037049375,204.01371875,235.974549375,201.76371875,235.224549375,199.63871875C231.974549375,194.38871875,233.474549375,183.88871875,230.849549375,177.95121875C230.287049375,176.63871875,229.349549375,175.88871875,228.037049375,175.57621875C228.037049375,175.57621875,215.974549375,172.82621875,215.974549375,172.82621875C215.537049375,172.70121875,214.537049375,171.76371875,214.537049375,171.20121875C214.537049375,171.20121875,214.537049375,171.20121875,214.537049375,171.20121875M280.72454937500004,168.20121875C284.84954937500004,181.95121875,283.16204937500004,205.13871875,280.97454937500004,220.07621875C280.59954937500004,222.51371875,280.09954937500004,224.45121875,279.53704937500004,225.82621875C278.97454937500004,227.20121875,278.34954937500004,227.76371875,277.72454937500004,227.57621875C272.34954937500004,221.88871875,275.16204937500004,208.76371875,275.28704937500004,199.07621875C268.78704937500004,199.20121875,264.91204937500004,195.20121875,261.78704937500004,191.20121875C257.72454937500004,186.07621875,255.162049375,179.01371875,254.974549375,170.01371875C254.912049375,167.88871875,255.474549375,166.20121875,257.78704937500004,166.70121875C262.41204937500004,173.70121875,262.03704937500004,186.51371875,269.41204937500004,190.88871875C271.22454937500004,191.95121875,275.91204937500004,193.38871875,276.72454937500004,190.51371875C278.22454937500004,185.07621875,275.84954937500004,176.13871875,278.03704937500004,170.88871875C278.53704937500004,169.57621875,279.41204937500004,168.63871875,280.72454937500004,168.20121875C280.72454937500004,168.20121875,280.72454937500004,168.20121875,280.72454937500004,168.20121875" style="-webkit-tap-highlight-color: rgba(0, 0, 0, 0);"></path>
</svg>
