<svg height="304" width="304" xmlns="http://www.w3.org/2000/svg" style="position:relative;left:-0.5px;top:-0.5px" overflow="hidden"><desc style="-webkit-tap-highlight-color:rgba(0, 0, 0, 0)">Created with Raphaël 2.1.0</desc><circle cx="152" cy="152" r="150" fill="#ff0023" stroke="#dedede" stroke-width="2" style="-webkit-tap-highlight-color:rgba(0, 0, 0, 0)"/><path fill="#fff" d="M79.42 86.877c1.29 19.22 9.493 35.39 10.314 55.196.234 6.328-8.086 6.562-10.9 2.578-8.085-11.484-7.382-33.866-6.913-52.85 1.524-2.462 4.57-3.868 7.5-4.923M73.21 59.22c3.164.94 8.203 7.618 2.46 9.142-1.64.468-4.335 0-8.202-1.29.117-4.1 1.29-7.968 5.742-7.85m42.54 85.546c-22.735 0-25.43-25.43-16.76-41.953 6.095-11.602 14.18-23.672 30.587-23.672 25.547 0 24.258 27.305 26.72 51.094.585 4.57 1.64 8.672 3.397 12.54-1.64 3.397-2.11 7.147-5.86 5.975-3.983-3.633-5.975-9.726-9.14-16.758-9.14 5.86-14.18 12.774-28.945 12.774m24.14-32.93c.35-8.906 1.29-22.734-7.5-22.734-14.063 0-21.914 10.898-26.016 21.68-3.75 9.96-3.984 24.96 9.375 24.023 14.18-.938 23.67-8.672 24.14-22.97m42.422 7.618c1.29-12.07 9.726-19.57 20.04-22.5 24.14-.586 25.31 23.907 26.132 47.58h-8.555l-2.696-18.986c-1.524-8.087-3.985-14.884-9.844-18.634-5.86-1.29-8.555 3.4-10.664 7.5-4.22 7.97-5.742 19.57-6.914 30.118-7.5 4.687-11.953-3.75-14.532-9.493-3.632-7.967-6.093-18.163-8.203-27.42 0-4.688 2.696-5.977 7.617-5.743 1.172 7.032 2.813 14.063 7.618 17.578M54.287 182.264c-.562-1.625-2.875-1.938-4.375-.438-3.812 3.938-5.625 10.688-7.625 16.438-1.625.5-3.75.312-4.687-.938-2.688-3.5-2.25-10.687-5.188-14-1.125-1.187-3.375-2.062-4.187.188-1.75 4.75-2.75 11.5-3.313 17.437-1.562 1.626-4.25 1.814-6.062-.25-5.063-5.75-7.813-15-8.813-24.624-.312-2.75 1.375-3.625 4.188-3.25l2 8.813c.875 3.06 1.812 6.25 3.312 8.624 4.375-3.313-.625-13.5 9.5-13.5 7.25 0 7.688 6.5 11.938 9.5 2-4.5 4.437-9.125 8.375-11.563 4.25-2.56 8.187 1.75 9.812 4.876 2.75 5.063 4.25 12.25 4.563 19.438.125 2.5-3.375 2.5-5.375 1.937l-4.063-18.686M77.1 202.45c-10.375 0-13.188-12-9-20 3.312-6.25 9.937-10.936 19-10.936 6 0 8.875 6.625 8.875 12.687 0 8.44-6 13.69-12.125 16.69-2.25 1.06-4.5 1.56-6.75 1.56m12.375-14.31c2.625-4.814.562-14-5.688-10.626-4.5 2.437-8.875 6.125-11.375 10.5-2.375 4.187.188 9.437 5.313 9 5.812-.438 9.5-4.688 11.75-8.875m31.75-9.94c-5.875-.686-6.813 5.814-6.813 11.44.063 3.75 1.625 6.374 1.625 10.186 0 3.375-4.125 3.125-6.062 1-4.813-5.312-8.563-13.5-10.938-21.25-.437-1.562-.625-2.75-.625-3.5 0-2.562 1.875-4.562 3.5-2.375 2.5 3.376 4.313 8.376 5.938 12.564 2.625-6.375 4.375-14.75 12.75-14.75 4.375 0 7.312 2.5 7.5 6.875.062 2.06-2.063 2.56-4.188 2.5l-2.687-2.69m15.937-8c.688 10.25 5.063 18.876 5.5 29.44.125 3.374-4.312 3.5-5.812 1.374-4.313-6.125-3.938-18.063-3.688-28.188.813-1.312 2.438-2.062 4-2.625m-3.312-14.75c1.687.5 4.375 4.064 1.312 4.876-.875.25-2.312 0-4.375-.687.063-2.19.688-4.25 3.063-4.19m22.687 45.626c-12.125 0-13.562-13.562-8.937-22.375 3.25-6.186 7.562-12.624 16.312-12.624 13.625 0 12.938 14.563 14.25 27.25.313 2.438.875 4.625 1.813 6.688-.875 1.812-1.125 3.812-3.125 3.187-2.125-1.936-3.188-5.186-4.875-8.936-4.875 3.125-7.563 6.812-15.438 6.812m12.875-17.562c.188-4.75.688-12.125-4-12.125-7.5 0-11.687 5.81-13.875 11.56-2 5.314-2.125 13.314 5 12.814 7.563-.5 12.625-4.625 12.875-12.25m37.313-5.313c-5.875-.686-6.813 5.814-6.813 11.44.063 3.75 1.625 6.374 1.625 10.186 0 3.375-4.125 3.125-6.062 1-4.813-5.312-8.563-13.5-10.938-21.25-.437-1.562-.625-2.75-.625-3.5 0-2.562 1.875-4.562 3.5-2.375 2.5 3.376 4.313 8.376 5.938 12.564 2.625-6.375 4.375-14.75 12.75-14.75 4.375 0 7.312 2.5 7.5 6.875.062 2.06-2.063 2.56-4.188 2.5l-2.687-2.69m7.812-7c-.375-1.06.938-1.936 1.438-2.31h12.562c-.437-5.064-1.687-12.376 1.438-15.44.687-.686 1.625-1.06 2.875-1.06 0 7.124 1 12.186 3.25 16 2.625 4.436 9.625 3.25 14.375 1.936 3.062-.812 4 2.5 2.625 4.375-4.063 1.876-11.25 1.69-17.063 2.126-1 9.813 6.188 14.563 5.313 24-.313 3.188-5.375.938-6.125-1.187-3.25-5.25-1.75-15.75-4.375-21.69-.563-1.31-1.5-2.06-2.813-2.374l-12.062-2.75c-.438-.125-1.438-1.062-1.438-1.625m66.188-3c4.125 13.75 2.437 36.94.25 51.876-.375 2.438-.875 4.375-1.438 5.75-.562 1.375-1.187 1.938-1.812 1.75-5.375-5.687-2.563-18.812-2.438-28.5-6.5.125-10.375-3.875-13.5-7.875-4.062-5.124-6.625-12.186-6.812-21.186-.063-2.125.5-3.813 2.812-3.313 4.625 7 4.25 19.814 11.625 24.19 1.813 1.06 6.5 2.5 7.313-.376 1.5-5.438-.875-14.375 1.312-19.625.5-1.314 1.375-2.25 2.688-2.69" style="-webkit-tap-highlight-color:rgba(0, 0, 0, 0)"/></svg>